<svg xmlns="http://www.w3.org/2000/svg" viewBox="0 0 349.9 448" width="349.9" height="448" class="cc-map" role="img" aria-label="ルクセンブルク（ルクセンブルク全土）：位置と形・骨組み・区画の3層">
<style>.cc-map text{font-family:"Hiragino Sans","Noto Sans JP",system-ui,sans-serif;paint-order:stroke;stroke:#000;stroke-width:2.6px;stroke-linejoin:round}</style>
<clipPath id="cc-lux-main"><rect x="46" y="26" width="289.9" height="396"/></clipPath>
<rect x="46" y="26" width="289.9" height="396" fill="#05080d"/>
<g class="grid">
<path d="M46 26V422M102.8 26V422M159.7 26V422M216.5 26V422M273.3 26V422M330.2 26V422M46 404.4H335.9M46 316.4H335.9M46 228.4H335.9M46 140.4H335.9M46 52.4H335.9" stroke="rgba(255,255,255,.07)" stroke-width=".6" stroke-dasharray="2 3" fill="none"/>
<path d="M159.7 26V422" stroke="rgba(255,255,255,.06)" stroke-width=".5" fill="none"/>
<path d="M46 140.4H335.9" stroke="rgba(255,255,255,.16)" stroke-width=".8" fill="none"/>
<text x="46" y="437" font-size="9.5" fill="rgba(255,255,255,.55)" text-anchor="middle" stroke="none">東経5.6°</text>
<text x="102.8" y="437" font-size="9.5" fill="rgba(255,255,255,.55)" text-anchor="middle" stroke="none">東経5.8°</text>
<text x="159.7" y="437" font-size="9.5" fill="rgba(255,255,255,.55)" text-anchor="middle" stroke="none">東経6.0°</text>
<text x="216.5" y="437" font-size="9.5" fill="rgba(255,255,255,.55)" text-anchor="middle" stroke="none">東経6.2°</text>
<text x="273.3" y="437" font-size="9.5" fill="rgba(255,255,255,.55)" text-anchor="middle" stroke="none">東経6.4°</text>
<text x="41" y="407.9" font-size="9.5" fill="rgba(255,255,255,.55)" text-anchor="end" stroke="none">北緯49.4°</text>
<text x="41" y="319.9" font-size="9.5" fill="rgba(255,255,255,.55)" text-anchor="end" stroke="none">北緯49.6°</text>
<text x="41" y="231.9" font-size="9.5" fill="rgba(255,255,255,.55)" text-anchor="end" stroke="none">北緯49.8°</text>
<text x="41" y="143.9" font-size="9.5" fill="rgba(255,255,255,.55)" text-anchor="end" stroke="none">北緯50.0°</text>
<text x="41" y="55.9" font-size="9.5" fill="rgba(255,255,255,.55)" text-anchor="end" stroke="none">北緯50.2°</text>
</g>
<g clip-path="url(#cc-lux-main)">
<g class="L1">
<path class="nei" d="M46.6 354.4l1 -1.8 0.6 -3.2 3.4 -4.6 7.1 -3.7 6.4 1.5 6.1 3.1 6.1 1 3.6 -1.5 3.6 -4.9 3.1 -1.6 3 0.4 6.3 3.9 3.3 0.8 8.9 12 5 4.7 7.1 3.3 18.1 4.4 5.3 5.4 3.9 12.6 4.9 -1.6 24.3 -1.5 4.1 -1.6 2.8 -4.2 3.4 -1.3 0.7 -2.4 0 -2.8 1.5 -2.7 2 -0.8 8 -0.8 -1.9 -4 16.4 -1.8 8.1 0.8 7.7 3.2 14.1 10.6 7.5 4.1 8.1 0.9 3.1 -0.6 5.4 -3.7 2.3 -0.9 3.1 0.5 26.1 13.2 4.9 4.7 1.7 3.7 0.8 3.6 0.1 2.5 -0.6 0.2 2 2.9 13.8 14.8 0.3 0.8 -277.2 0 0 -67.6zM322.9 421.2l-13.8 -14.8 -2 -2.9 0.6 -0.2 -0.1 -2.5 -0.8 -3.6 -1.7 -3.7 -4.9 -4.7 -26.1 -13.2 -3.1 -0.5 -2.3 0.9 -5.4 3.7 -3.1 0.6 -2.4 -0.3 -0.9 -16.5 2.4 -18.5 0 -13.9 1.7 -4.8 4.3 -6.8 7.4 -9.2 5.7 -11.1 -0.2 -2.9 -3.6 -3 -0.5 -1.4 4.4 -6.3 20.9 -13.5 -2.5 -3.3 1 -2.1 1.3 -0.7 2.5 1 -2.1 -2.7 -1.3 -3.2 -0.7 -3.6 0.3 -3.9 2.7 -2.4 0.1 -1.7 -0.7 -2 0 -3.1 1.3 -9.6 0.5 -0.3 0 -3.7 0.7 -0.5 -1.5 -1.7 -9.9 -2.6 -13.6 0 -5 -1.4 -4.8 -3 -8.2 -7.8 -4.8 -3.1 -2.5 -0.1 -4.2 2.6 -2.3 -0.2 -3.2 -9 -1.3 -2.5 -4.2 -2.6 -9.6 -4.3 -4.4 -4.5 -9.4 -22.6 -4.9 -7.8 -3 6 -2.3 -3.8 -4.3 -12.4 -4.9 -7.5 -1.2 -3.5 0.8 -4.9 -1.8 -9.2 -1.8 -3.6 -3.1 -1.8 3.7 -6.6 -2.9 -0.2 1.8 -12.4 1.4 -6 2 -6.4 2.5 -3 0.9 -3 -1 -2.7 -2.9 -2.3 1.5 -7.1 0.6 -1.5 2.4 -1.5 5.7 -0.4 2.1 -1.4 1.7 -4.1 0.2 -5 -1.6 -5 -3.8 -4.2 2.9 -3.8 6.5 -4.5 2.8 -4.3 5.9 -2.8 12.2 -3.4 1.6 -1.4 102.6 0 0 396 -12.7 0zM231.7 27.4l-12.2 3.4 -5.9 2.8 -2.8 4.3 -6.5 4.5 -2.9 3.8 3.8 4.2 1.6 5 -0.2 5 -1.7 4.1 -2.1 1.4 -5.7 0.4 -2.4 1.5 -2.1 8.6 2.9 2.3 1 2.7 -0.9 3 -2.5 3 -4.3 -1.9 -0.6 -3.5 0.3 -4.1 -1.2 -4.1 -3.7 -3.5 -2.2 0.3 -1.8 2 -2.5 1.5 -6.5 1 -3.2 -0.5 -3.7 -1.8 -1.7 -3.2 -1 -4.2 -1.8 -2 -4.4 3.5 -6 0.6 -2.4 4.1 -1.2 6 -2.3 6.3 -4.2 4.4 -10.6 5.2 -4.7 4.3 -1 2.8 -0.6 7.1 -0.7 3 -1.7 2.5 -4.1 3.6 -1.7 2.7 0.3 9.3 -0.7 3.4 -2.1 2.2 -5.7 2.6 -1.8 2.3 -0.3 6.1 2 2.4 1.1 2.5 -3.1 6 -2.3 2.2 -4.2 1 -2 1.3 -2.3 3 -2.9 7.3 -9.8 17.1 -1.1 4.2 3.3 1.6 6.3 4.8 2.6 4 -7.4 -0.8 0 2.6 -1.4 3.9 2.7 2.5 -3.4 2.3 -1.2 4.2 0.4 5.3 1.7 5.5 3 5 2.9 1.4 3 0.5 3.6 2.3 1.9 2.8 6.7 13.2 1 9.3 1.8 1.5 5.6 2.1 1.6 0.3 1.9 -0.6 1.8 0.1 1.7 2.6 0.3 3.4 -2.4 3.4 -0.6 5.3 -1.3 3 1 3.2 2 1.5 5.7 0.6 2 1.8 1.6 6.2 -1.6 3.9 -5 5.3 -3.7 10.1 -2.2 4.4 -3.3 3.1 4.9 2.6 -2.7 6.9 -6.6 7 -6.7 3.3 -3.3 -0.8 -6.3 -3.9 -3 -0.4 -3.1 1.6 -3.6 4.9 -3.6 1.5 -6.1 -1 -6.1 -3.1 -6.4 -1.5 -7.1 3.7 -3.4 4.6 -0.6 3.2 -1 1.8 -0.6 0 0 -328.4 187.3 0z" fill="rgba(255,255,255,.05)" stroke="rgba(255,255,255,.18)" stroke-width=".7" stroke-linejoin="round"/>
<path class="land" d="M189.7 99.8l-1.8 12.4 0.5 0.3 2.4 -0.1 -3.7 6.6 3.1 1.8 1.8 3.6 1.8 9.2 -0.8 4.9 1.2 3.5 4.9 7.5 4.3 12.4 2.3 3.8 3 -6 4.9 7.8 9.4 22.6 4.4 4.5 9.6 4.3 4.2 2.6 1.3 2.5 3.2 9 2.3 0.2 4.2 -2.6 2.5 0.1 4.8 3.1 8.2 7.8 4.8 3 5 1.4 13.6 0 9.9 2.6 1.5 1.7 -0.7 0.5 0 3.7 -0.5 0.3 -1.3 9.6 0 3.1 0.7 2 -0.1 1.7 -2.7 2.4 -0.3 3.9 0.7 3.6 1.3 3.2 2.1 2.7 -2.5 -1 -1.3 0.7 -1 2.1 2.5 3.3 -20.9 13.5 -4.4 6.3 0.5 1.4 3.6 3 0.2 2.9 -5.7 11.1 -7.4 9.2 -4.3 6.8 -1.7 4.8 0 13.9 -2.4 18.5 0.9 16.5 -5.7 -0.6 -7.5 -4.1 -14.1 -10.6 -7.7 -3.2 -8.1 -0.8 -16.4 1.8 1.9 4 -8 0.8 -2 0.8 -1.5 2.7 0 2.8 -0.7 2.4 -3.4 1.3 -2.8 4.2 -4.1 1.6 -24.3 1.5 -4.9 1.6 -3.9 -12.6 -5.3 -5.4 -18.1 -4.4 -7.1 -3.3 -5 -4.7 -8.9 -12 6.7 -3.3 6.6 -7 2.7 -6.9 -4.9 -2.6 3.3 -3.1 2.2 -4.4 3.7 -10.1 5 -5.3 1.6 -3.9 -1.6 -6.2 -2 -1.8 -5.7 -0.6 -2 -1.5 -1 -3.2 1.3 -3 0.6 -5.3 2.4 -3.4 -0.3 -3.4 -1.7 -2.6 -1.8 -0.1 -1.9 0.6 -1.6 -0.3 -1.7 -0.9 -3.9 -1.2 -1.8 -1.5 -1 -9.3 -6.7 -13.2 -1.9 -2.8 -3.6 -2.3 -3 -0.5 -2.9 -1.4 -3 -5 -1.7 -5.5 -0.4 -5.3 1.2 -4.2 3.4 -2.3 -2.7 -2.5 1.4 -3.9 0 -2.6 7.4 0.8 -2.6 -4 -6.3 -4.8 -3.3 -1.6 1.1 -4.2 9.8 -17.1 2.9 -7.3 2.3 -3 2 -1.3 4.2 -1 2.3 -2.2 3.1 -6 -1.1 -2.5 -2 -2.4 0.3 -6.1 1.8 -2.3 5.7 -2.6 2.1 -2.2 0.7 -3.4 -0.3 -9.3 1.7 -2.7 4.1 -3.6 1.7 -2.5 0.7 -3 0.6 -7.1 1 -2.8 4.7 -4.3 10.6 -5.2 4.2 -4.4 2.3 -6.3 1.2 -6 2.4 -4.1 6 -0.6 4.4 -3.5 1.8 2 1 4.2 1.7 3.2 3.7 1.8 3.2 0.5 6.5 -1 2.5 -1.5 1.8 -2 2.2 -0.3 3.7 3.5 1.2 4.1 -0.3 4.1 0.6 3.5 4.3 1.9z" fill="rgba(61,139,255,.16)" stroke="#6aa9ff" stroke-width=".8" stroke-linejoin="round"/>
</g>
<g class="L2">
<g class="k-lake"><path d="M108.1 198.6l1.5 0.5 -0.4 0.1 0.6 0 2.2 -1.5 0.9 0.1 1.3 -2.1 1.3 0.4 0.5 -0.5 0 -0.7 -0.6 -1 -1.2 -0.4 -0.7 0.5 -0.8 -3.2 0.6 -0.7 1.8 1.4 1.5 0.5 1.5 -0.7 0 -1 -0.6 -1.2 -1.4 -0.8 -0.9 0.4 -0.2 -0.2 0.4 -1 1.1 0.2 -0.3 -0.2 1.7 -0.8 -1.8 -2.2 0.7 -0.5 1.3 0.8 0.8 -0.6 0.1 -0.9 -1 -1.3 0.4 -0.7 1.6 1.9 -0.5 2 1.6 0.8 0.5 -0.8 0.2 0.1 0.1 -0.8 1.3 -0.9 1.1 0 0.1 0.3 1 -0.4 0.7 -0.6 0.5 0.1 -0.2 -0.4 1.1 -1.2 0.4 0.6 0.9 0.2 -0.2 1.8 0.3 1 -0.3 1.1 0.4 -0.8 -0.1 -1.6 0.3 -0.8 -0.2 -1 -0.7 -0.3 -0.5 -0.9 0.5 -0.7 1.9 -0.6 0.5 -0.6 0.6 2.4 1.1 0.4 1 -0.5 0.3 1.5 -0.3 0.7 -2.1 1.5 0 0.5 0.4 -0.7 0.4 0.1 1.8 -1.5 0 -2.6 0.4 -0.1 1.3 2.6 1.1 0.3 0.7 -1.5 -0.6 -1.8 0.3 -0.6 0.5 0.1 0.4 -0.5 -0.5 -0.4 -1.3 -0.2 0.2 0.5 -0.4 1.1 0.4 1.3 -0.7 0.6 -0.6 -0.9 -0.4 -1.9 -1.6 0.1 -0.7 0.6 -1.2 -1.7 -1.1 0 -0.7 0.8 -1.2 0 -1.8 2.5 -0.9 0.3 0.2 0.2 -0.8 0.6 -0.5 0 -1.5 -0.9 0 -0.6 -0.4 -0.3 0.4 -1.3 -0.7 1.2 -1.3 -0.5 -0.2 -1.1 -0.8 -0.5 0.1 -0.4 -0.2 0.5 -0.5 0 0 -0.9 -0.3 0.7 -0.9 -0.5 -0.9 -2.1 0.1 0.5 -0.3 -0.2 0.2 1.4 1.4 1.3 1.8 0.3 0.2 1.2 2 0.7 0.1 0.9 1 0.8 -1.8 0.4 -0.8 1.1 -1 0.5 0.6 -0.8 -0.1 -0.5 -1.3 -2.2 -0.5 -0.4 -1.5 -0.3 0.4 0.4 -0.1 1.2 1 1.5 -0.7 0.5 -1 -0.7 -1.1 0.3 -0.2 1.3 0.3 0 1.1 1.3 -1.1 0.5 -1.2 -0.1 0.4 0.2 -0.4 0.3 -0.2 0.9 0.5 1 1.4 -0.4 1.1 1.6 -0.1 0.5 -0.8 0.5 -0.5 0 -3.2 -1.7 -0.6 1.1 0.7 3.2 0.5 0.4 1.5 -0.3 0.5 0.3 0.1 0.8 -0.4 0.5 -1.4 -0.3 -0.8 1.7 -3 1.7 0.1 0.1zM117.1 180.3l-0.1 -0.1 -0.7 0.1 0.7 0zM275.7 227.2l0.4 0.4 -0.2 0.5 0.7 0.4 -0.1 1.1 0.6 0.5 -0.4 -0.5 0.2 -0.2 0.3 0.7 0.9 0.7 0 -0.9 -0.4 -0.4 0.3 -0.8 -0.3 -0.8 -0.3 -0.1 0.1 -0.3 -0.6 0 -0.4 -0.6 -0.3 0.2 -0.2 -0.3zM277.3 228.5l0.5 0 0 0.6zM276.9 228l-0.2 -0.5 0.4 0.2zM261.4 364.3l0.7 -0.1 -0.1 -0.3 0.3 0.1 -0.1 -0.2 0.2 0 0.5 2.1 -1.1 0.3 -0.4 -0.2zM261.3 363.5l0.8 -1.1 1 0 -0.1 -0.4 0.4 0.1 -0.1 0.5 -0.2 -0.1 0 0.7 0.3 0 0.1 0.3 -1 -0.4 -0.2 0.4zM260.7 362.4l0.6 -0.9 0.3 0.1 -0.2 0.5 0.6 -0.1 -0.2 0.4 0.5 -0.4 -0.7 0.9zM177.9 79.3l1.5 0 0.5 0.4 -1.1 0.3zM261.8 346.2l0.6 -1.6 1.3 -1.3 -0.3 0.8 -1 0.8 -0.4 1.3zM176.5 78.2l0.8 0.1 0 1.2 -0.7 -0.2 0.2 -0.4zM261.6 361.2l0.8 -1.2 0.1 1.1 -0.5 0.3zM191.2 332.5l0.8 -0.3 0.3 0.6 -0.4 0.2z" fill="#5fd0ff" fill-opacity=".55" stroke="#5fd0ff" stroke-width=".6"/></g>
<g class="k-river"><path d="M82 209.7l-0.1 0.6 -2.1 1.1 0 1 0.7 0.8 2.2 -0.5 -0.3 1.3 0.4 1.2 1.1 0.2 1.5 -1.2 0.7 -2.9 0.8 -0.3 1.1 0.5 0.7 -0.5 -0.5 -3.1 0.8 -0.3 0.9 1.1 1 -0.7 0.1 -1.2 -1 -1.2 -2.2 0 -0.4 -0.7 2.6 -1.3 1.7 0 -1.7 -2 0.6 -1.9 -1.2 -1.4 1 -2.1 0.8 0.2 1.1 1.4 1.1 -0.1 0.6 -1.2 0.6 0.1 1 2.2 1 -2.2 1.7 -0.2 -1.6 -1 0.1 -0.9 2.6 1.6 1.2 -0.9 -0.1 -1.6 0.7 -0.7 0.9 1.4 -0.6 2.3 1.6 0.6 -0.1 0.6 0.8 -0.6 0.9 0.4 -1.3 2.4 0.4 0.5 0.7 -0.3 0.6 -1.8 1.5 -0.2 3.3 0.9 3.2 -1.8 1.1 -1.8 1.4 0.5 0.4 -0.9 -0.8 -1.2 -0.9 -0.3 -1.1 0.4 -0.7 -3.4 0.9 -0.7 2.6 1.8 1.8 -0.7 -0.2 -1.3 -1.1 -1.1 -1.2 0.4 -0.5 -0.5 0.3 -1.1 1.7 -0.2 0.5 -0.6 -1.5 -2.5 0.9 -0.4 1.6 0.9 0.4 -0.5 0 -0.9 -1.1 -1.4 0.5 -0.8 1 0.4 1.2 1.9 -0.5 1.9 0.7 0.3 0.8 -0.3 0.8 -2 2.9 0.3 2.4 -2.5 0.7 -1.5 2 -0.3 0.6 -0.8 1.2 2.2 2.7 -0.9 0.5 1.9 0.9 1 0.9 -0.3 -0.2 -3 1 -0.1 1 1.7 0.9 0.4 1.1 -0.7 0.3 -1.9 0.8 0.5 -0.4 0.7 1.2 2 0.9 -0.3 0.8 -1.4 0.8 0.4 0.2 0.8 -0.8 1.2 0.4 1.3 1 -0.2 2 -2.3 0.8 0.2M97.8 251.4l1.5 -0.7 2.4 0.3 3.2 -1.8 3.1 0.1 3.6 1.1 2.3 -1.2 0.4 0.3 0.3 -0.6 1.2 0.5 1.4 -0.7 0.6 0.2 0.9 -1.8 -0.1 -1.4 1.2 -1.1 1.9 -0.8 1.2 0.3 0.7 -0.4 1.2 0.2 1 1.2 2.5 0.3 0.2 -0.5 5.2 -1.5 1.3 -1.5 1.3 0 2.9 -2.6 -0.3 -0.6 0.9 -0.9 0.8 0 1.9 2.2 1.8 0.8 2.5 -1.4 0.9 1.6 2 -0.2 0.9 0.5 1.4 -0.5 1.2 1.6 2.8 -1.2 2.4 0.8 0.7 -1.2 1.4 -0.5 1 1.3 0.7 -0.8 0.2 -1.9 0.7 -0.4 2.6 0.9 1 -2.2 1.8 0 0.6 -0.6 -0.1 -1.8 1.1 -0.2 1.3 1.2 1.8 0.4 1.3 -1.2 2.1 0 2.5 -2.1 1.6 -0.5 0.6 -3 3 -0.4 0.3 -1.9 1 -0.6 -0.5 -2.9 1.9 -1.8M105.5 140.2l2.6 -0.6 1.4 0.6 1.1 -1.3 2.7 0.7 1 -1 1.1 1.3 1.1 -0.4 -0.1 1.3 1.9 1.8 -0.8 0.8 1.6 0.6 1.1 1.4 -0.9 0.9 0.2 1 1.3 2 0.5 0 0.8 1.2 1 0.1 0.4 2.1 1.9 1.7 0.6 -0.9 -1.1 -0.9 1.2 -0.5 1.1 0.8 0.5 1.4 1.8 0.6 1.9 -0.9 0 1.8 1.2 0.8 1.1 -0.9 1.3 0.9 4.4 -2.2 0.5 -0.9 1.2 0.3 0.1 -1.4 0.6 -0.4 1.2 1.1 0.7 -0.3 -1.3 1.6 2 0.6 0.5 1 1.3 -0.8 1.2 1.1 1 -0.2 -0.6 1.1 0.4 0.7 2.3 -0.8 0.9 -1.1 0 1.8 2 0.5 0.4 1.5 2.5 -0.7 0 -1.3 1.3 -0.2 0 1.4 1.3 0.3 0.9 2.2 1.6 0.6 1.2 -1.8 1 -0.4 1 1.9M164.6 161.8l1.7 1.1 1 1.5 -0.9 1.3 0.5 1.3 2.3 1.1 0.7 -0.3 0.1 -1.2 0.6 0.7 1.1 0.2 -0.3 1.7 0.9 0.6 -0.2 1 1.2 1.3 0.4 2M133.1 287.5l-0.2 0.1M132.9 287.6l-1.1 0.6 0.1 -1.8 -0.8 1 -1.1 -1.3 -0.9 1.2 -0.7 -1.9 -0.9 1.1 -0.5 -1.1 -0.8 0.1 0 -0.7 -1.1 -0.5 -0.3 -1.8 0.7 -1.3 -0.5 -1.2 1.3 -2 3.7 -0.5 0.9 1.1 1.2 0.5 2.6 -0.7 1.2 0.3 1.4 -1.2 0.7 0.1 0.2 1.5 -0.6 1.2 2.6 1.2 1.7 -0.6 1.7 1.3 0.3 -0.6 -1 -2.2 0.4 -0.7 1.3 -0.6 1 -1.5 2.5 -0.5 0 -1.5 2.2 -2.2 0 0.5 0.8 -0.4 0.7 0.4 2.1 -1.2 1.1 0.1 0.7 0.4 -0.4 1.4 0.6 1 2.1 -0.6 2.1 1.4 1.5 -1 1.2 -0.1 2.3 -1.8 0.5 0.8 2.4 1 2.1 -0.5 0.3 -1.8 0.6 -0.4 1 1.7 0.7 0.1 2.8 -4.6 1.8 -1.1 -1.6 -0.8 0.1 -0.8 1.3 -0.9 1.9 0.2 1.8 -1 0.9 -1.1 0.3 -1.8 1.9 -0.4 0 -0.5 -1.6 -0.5 -1.7 -5 0.6 -1.6 1.7 -0.6 0.2 -1.2 2.1 -0.7M133.1 287.5l-0.2 0.1M134.3 288.8l-0.7 -1.3 -0.5 0M148.7 181.6l0.4 0.3M148.7 181.6l0.4 0.3M149.1 181.9l0.4 0.5 1.4 -1.7 1.8 0 0 -1 0.5 -0.3 1 0.7 -0.2 2.5 1.6 -0.3 0.7 -1.3 -0.6 -2.4 1.9 -0.4 2.9 0.3 0.2 -1.2 -0.8 -0.8 0.3 -1.4 2.2 -2.2 1.2 0.2 4.2 3.3 1.7 -1.4 0.8 0 0.5 1 -0.2 -2.5 0.4 -0.5 2.7 1.1M173.7 174.1l1.2 1.4 2 0.4 0.8 -2 1.6 -1.5 0 -2.1 2 1.4 -0.8 2.6 -1.1 1.4 2.9 2.4 -0.6 2.1 0.5 0.8 0.6 -0.3 1.1 -2.4 1.2 0.3 -1.5 4.9 1.2 2.4 2.6 2.4 -0.9 1.1 0.2 0.5 1.7 0 1.8 -4.2 2.6 0.2 -0.2 1.1 -2.2 1.8 1 2.9 -1.8 0.9 -0.3 0.9 2.3 3.7 -0.8 2.1 0.2 2.6 -0.9 1.2 1.5 4.1M191.6 207.2l4.8 -0.1 3 -2.5 1.1 -1.9 2.4 -2.2 1.8 -0.5 1.6 -1.4 3.9 -0.3 4.6 -1.4 3.1 1.1 3 -1.3M150 366.9l1.4 -1.3 -0.6 -0.9 2.8 -1.2 2.4 -1.8 0.5 -0.9 -0.5 -1.3 2.9 -3.5 1.8 0.9 3.4 -2 -0.1 -0.9 1.3 -0.1M159.9 127.9l-0.1 0.2M159.9 127.9l-0.1 0.2M159.8 128.1l-0.4 1.1 0.7 1.6 -1.2 1.2 2.2 -0.5 0.7 0.5 0.4 1.5 -1.4 2.4 -1.7 -0.4 -1.1 0.7 0.6 2 -2 1.1 -0.2 0.7 1.2 0.5 -0.1 1.7 2.1 1.8 0 1.9 1.8 0.1 -0.3 1.1 -1.9 0.8 0.6 0.5 1.4 0 1.2 -1.3 1.3 1.6 -2.3 0.9 0.3 0.8 1.1 0.1 1.8 -0.8 0.8 0.4 -0.3 1.1 -0.9 0.6 -1.4 -0.3 -0.1 0.6 0.9 0.7 1.9 -0.2 0.1 1.1 -1.6 1 -0.1 0.7 0.6 0.6 2.2 0.4 0.7 1.9 -1 0.4 2 1.8 -0.6 0.4 -1.5 -0.4 -0.8 1.1 -0.6 -0.3 -0.3 0.5M166.6 112.1l-0.1 2.2 2.3 2.4 -0.4 0.4 -1.7 -0.8 -1.1 2.2 -1.4 0.3 1.4 2.2 0 1 -1.3 1.6 1.2 1.3 -1 0.5 -1.4 -0.4 -0.9 0.4 -2.3 2.5M165.3 353.9l0.2 0M165.3 353.9l0.2 0M165.5 353.9l2 -0.8 1.1 0.3M168.6 353.4l1.8 0.4M168.6 353.4l1.8 0.4M170.4 353.8l1.4 1 1.9 -0.6 1.1 0.3 4 -0.4 2.6 -0.6 0.5 -1.1 0.8 0.4 2.8 -1 1.9 -1.6 2.1 0 2.5 -1.3 1.9 -0.2 1 -0.9 1.2 -3.4 3.1 -1.4 2 -2.1 0.4 -1.5 -1 -2.4 0.6 -0.8 0.3 -2.2M171.1 305.6l2.2 -2.5 -0.6 -1.6 0.9 -1.9 -0.6 -1.2 2.3 -1.9 -0.2 -0.8 1.1 -0.8 0.7 -2 0.8 0 1 -0.9 2.2 -5 0 -1.2 1.7 -1.4 0.7 -1.8 1.5 -1.5 1.1 -4.2 -0.5 -4.4 -0.6 -1.2 1 -2.6 -0.2 -3.1 0.4 -1.2 2.3 -2 0.7 -3.7 -2 -3.1 0.4 -1.4 0.7 -0.9 1.1 -0.1 1.1 -2.1M186.7 208.3l0.3 0.2M204.3 329.1l-0.9 -1.5 0 -1.9 -1 -0.9 -0.7 -2 1.9 -1.3 1.9 -2.9 -0.3 -1.6 0.5 -0.9 2.1 -0.8 0.3 -1 -2.4 -1.6 -1 2.1 -3.5 1.3 -0.7 -1.1 1.8 -2.2 -2 -0.6 -1.6 0.9 -0.5 -1.3 1.9 -0.6 0.5 -0.8 -0.6 -0.3 -1.8 0.6 -0.9 -0.9 0 -3.2 -0.5 -2.1 1.7 -2.4 -1.4 -3.2 0.6 -4.3 -1.3 -2.5 0.2 -2.4 -1.3 -1.8 0.1 -1 1.2 -0.5 -0.6 -1 0.5 -0.2 0.1 -2.1 0.8 -1.3 -0.4 -2.8 1.6 -3.6 -1.1 -1.2 0.1 -1.9 -0.9 -1.5 -2.1 -1.9 0.1 -1.4 -1.3 -4.6 0.2 -1.7 -0.7 -0.9 0.4 -1.2 -1 -2.3 -0.7 -0.2 0.1 -1 -1.1 -0.6 0.7 -1 -1 -2.9M190.3 251.1l1.4 -0.7 1 -1.7 -0.1 -1.1 -2 -1.6 0.9 -2.5 0 -2.2 -1.3 -1.5 0.4 -0.7 2.4 -1.2 0.2 -1.7 -0.8 -1.5 1.6 -1.8 -0.4 -2.2 1.1 -1.9 2.6 -1.6 -0.9 -0.7 -2.7 1.3 -1.1 -0.3 -1.1 -1.2 -0.3 -2.1 -0.9 -1.5 -3.3 -0.9M187 221.8l-0.4 -0.8 0.4 -0.9 -1.4 -1.8 0.7 -3.6 -0.1 -3 -0.7 -1.2 1.2 -2.2M186.7 208.3l0.3 0.2M187 208.5l2.7 -0.1 1.9 -1.2M199 81.2l-0.5 4.5 -2 1.3 -0.5 2.3 0.5 0.8 1.6 0.5 -1.2 2.4 1.3 1.9 -2.3 0.5 -0.6 0.6 0.9 2.4 1.1 0.2 0.2 0.7 -0.9 0.5 -2.1 -0.6 -0.7 0.7 -0.1 2.6 0.7 2 -1.8 3.1 1.4 0.9 1.2 -2 1.2 1.6 -2.3 2 -0.1 1.7 -2 -0.2 -0.4 2.4 0.5 1 1.1 0.6 0.7 -0.3 0 -1.3 1 0.1 -0.6 3.1 0.9 0.7 2.7 4.9 -1.3 4.6 4.6 3 -2.4 3.1 -1.5 -1.6 -0.6 0.3 2.3 3.3 2.8 0.4 0.4 0.6 -1.3 4.7 -1.5 -0.8 -0.6 0.7 1.3 1.6 2.4 0.3 0.8 2 1 1 1.7 0 2.7 1.2 -1 0.5 -1.1 5.9 1.6 3.2 1.4 0.5 0.9 3.7 0.8 0.1 2 -1.6 -1.3 -0.8 -0.8 -2.6 1.5 -1.7 1.5 -0.1 0.7 3.7 -0.3 1.3 1.2 2.9 0 1.6 1.8 0.7 0.5 1.1 0 3.5 1.8 1.3 3.2 1 0.1 0.9 -1.4 1.1 -0.1 0.9 3.2 0.8 0.6 1 0.7 2.7 -0.7 0.7 -1.2 -0.1 -0.1 0.4 1.5 1.8 0.4 2.7 1.7 1.7 2 0.5 4.3 6.3 3.5 1.8 2.3 -0.8 1.3 1.6M201.5 334l0.4 -0.1M201.5 334l0.4 -0.1M201.9 333.9l2.4 -2.7 0 -1.8M204.3 329.4l0 -0.3M204.3 329.4l0 -0.3M216.6 270.8l3.3 -3.5 1.7 -4.4 -0.3 -1.5 -2.1 -1.3 0 -1.8 1 -1.6 0.4 -2.2 -0.8 -3.2 -1 -1M218.8 250.3l-0.3 -1.4 0.6 -1.2 3.3 -1.1 2.5 -3.7 -0.6 -1.2 -1.4 -0.7 0.2 -1.5 -1.6 -2 0.8 -2.4 -0.5 -1.1M218.9 250.4l-0.1 -0.1M220.9 196.7l2.4 -1M220.9 196.7l1.1 -1 1.3 0M223.3 195.7l2.3 -0.6 1.2 0.2 1.4 5.2 1.5 1.3 1.9 -0.8 1.6 -2.1 2.9 -2.1 3.3 0.8 1.8 -2.2M241.2 195.4l1.4 0.1 0.2 2 1.3 1.8 3.5 -1.7 1.1 0.8 0.1 3.2 2.6 4.1 -0.8 4.8 2 2 2.6 -1.1 1.6 -4.5 2.4 -0.8 3.8 -0.1 9.6 12.6 3.5 2 4.4 0.7 0.4 1.7 1 0.7 3.1 -1.6 0.8 1.2 3 0 2.6 -3.4 2.2 -1.4M293.6 218.5l2.6 1.7 1.2 2.2 1.1 0.8 1.1 0.2 1 -0.5 2.7 1.3 1.5 3.3 1.2 -0.7 1.7 -4.3 2.5 1.8 0.4 1.5 -2.6 3.8 -4 2.3 -0.6 1.2 0.6 1 2.6 1.9 -2 3.8 2.2 2.3 0.2 2.9 -0.8 1.4 -3.4 1.8 -0.9 1.5 0.6 2.5 -0.2 5.8 1.1 1.5 3.3 2.5 -0.7 0.9 -1 0.2 -1.9 -2.2 -1.7 -0.3 -1 0.6 0.2 1.2 3 2.8 0.1 1.5M230.9 266.9l-0.1 -3.5 0.8 -3.3 -1.5 -1.6 -0.3 -2.2 2.4 -2.8 2.8 -0.7 0.2 -1.4 1.8 -2.3 0.1 -2 0.9 -0.4 2.3 -3.6 0.2 -3 1.9 -0.8 0.4 -1.2 1.2 -0.8 1.2 -3.3 2.8 -1.8 0.2 -2.2 1.3 -3.6 2.2 -2.9 0.3 -4.9 1.6 -2.7 -0.2 -3.2M249.3 282.3l3.8 -3.5 1.2 0 1 -0.9 0.6 -0.2 1.2 0.9 2 0.3 1.6 -0.5 4.1 -3.5 2.2 -0.4 3.4 -1.5 1.8 -1.8 1.9 0 0.6 -1.3 1.2 -0.7 3.1 1.2 0.4 -0.6 2.6 -0.6 1.3 0.3 0.7 -1.6 1.4 -0.9 1.3 0.7 1.2 -0.2 2.9 2.7 2.5 0.2 1.3 1.7 2.1 1.1M261.8 329.6l-0.5 -1.2 0.4 -0.9 1.8 -1.4 1.4 -0.4 2.3 1.2 1.1 -0.5 0 -1.7 -2.1 -2.7 0.1 -1.9 2.8 -3.4 2.4 -0.4 1.6 -0.9 2 -3.2 1.6 -2 2.1 -1.4 0.7 -1.5 1.7 -6 3.5 -8.5 0.1 -1.9 -0.5 -0.7 -2.9 -0.3 -0.7 -0.9 2 -3.7M265.4 332.2l-3.6 -2.6M263 330.5l-1.2 -0.9M263.5 330.9l-0.5 -0.4M263.2 330.7l-0.2 -0.2M263.5 330.9l-0.2 -0.1M265.4 332.2l-1.9 -1.3M264.4 372.9l-0.1 -13.8 -3.3 -12.4 0.9 -2 5.2 -5.6 1.1 -2.7 -0.1 -1.8 -2.7 -2.4M275.3 177.2l-1.2 0.5 0 1.5 2.3 4.6 1.1 0.8 -0.9 3.6 1.4 0.9 -0.2 1.3 0.7 1.3 0.7 0.1 0.3 -0.6 2.9 1.8 0.8 1.8 -0.4 0.6 0.8 0.7 -0.4 0.9 0.5 0.4 1 4.1 1.5 2.4 0.8 3.9 1.1 0.6 0.2 1.2 0.8 -0.1 0.7 0.8 2.7 -1.8 0.7 1.1 0.1 1.8 2.2 1.1 -2.5 3.4 0.6 2.6M282.7 285.3l1.4 -0.9M282.7 285.3l1.2 -0.9M284.2 284.3l1.1 -0.8M284.5 284l0.8 -0.5M285.3 283.5l5.1 -7.3 3.1 -1 3.2 -2M296.7 273.2l4.9 -5.9 2.1 -0.6M303.7 266.7l1.9 0.8 5.1 -1.2 7.3 5.1 2 0.6 1.6 -0.5 1.9 -2.4 6.5 -3.4" fill="none" stroke="#5fd0ff" stroke-width="1.3" stroke-linejoin="round" stroke-linecap="round"/></g>
<g class="k-trunk"><path d="M86 210l-0.5 0M86 211l-0.5 0.5M86.5 210.5l-0.5 -0.5M86 210l0 0.5M86 210.5l0.5 0M86 210.5l0 0.5M86 211l0.5 -0.5M86 211.5l0 -0.5M129.5 333.5l-1.5 -0.5M130.5 336.5l1 -0.5 2 2M144 362.5l-0.5 -0.5M143.5 362l0.5 0.5M144.5 358l-1 4M144 362.5l4 2.5 0 1.5M145 357.5l-0.5 0.5M144.5 358l0.5 -0.5M149.5 356l-3.5 -1 -1 2.5M198 192.5l-2 5 0 2 -1.5 2 -0.5 5.5 -4 1.5 -1.5 1.5 -0.5 4 1 2.5 -1.5 2.5M190 316.5l2 0M190 316.5l-0.5 -0.5 0.5 0.5M197.5 358.5l-0.5 0M197 359l0.5 -0.5M198 322.5l-0.5 0M198 323l-0.5 -0.5M197.5 322.5l0.5 0.5M197.5 358.5l0 -0.5M198 317.5l0 5M198 323l0 -0.5M211 300.5l-2 1" fill="none" stroke="#a7784a" stroke-width=".7" stroke-linejoin="round" stroke-opacity=".9"/></g>
<g class="k-motorway"><path d="M129.5 333.5l2 1.5M132 336l-0.5 -1M131.5 335l0.5 1M132 336l1 1.5M133 299.5l0.5 0M133 299.5l-2 -0.5 2 0.5M133 337.5l0.5 0.5M133.5 338l-0.5 -0.5M133.5 299.5l2 0.5M135.5 300l-2 -0.5M135.5 340l-2 -2M133.5 338l2 2M135.5 300l11 0.5M135.5 340l0.5 0.5M136.5 341l-0.5 -0.5M136 340.5l0.5 0.5M136.5 341l1.5 3M138.5 344.5l-0.5 -0.5M138 344l0.5 0.5M138.5 344.5l1 1.5 1 0M141 346.5l-0.5 -0.5M140.5 346l0.5 0.5M141 346.5l3.5 0.5M145 346.5l-0.5 0.5M144.5 347l0.5 -0.5M145 346.5l2.5 0.5M148 300.5l-1.5 0M146.5 300.5l1.5 0M148.5 347.5l-1 -0.5M147.5 347l1 0.5M148 300.5l4 0M148.5 347.5l1 0 1.5 2.5M149.5 356l1.5 -0.5M152 352l-1 -2M151 350l1 2M151 355.5l1 -0.5M152 355l-1 0.5M152.5 301l-0.5 -0.5M152 300.5l0.5 0.5M152 352l0.5 2M152 355l1 0M152.5 301l5.5 0 2 -1M153 354.5l-0.5 -0.5M152.5 354l0.5 0.5M153 354.5l0 0.5M153 355l0.5 -0.5M153 355l0 0.5M153.5 354.5l-0.5 0.5M153.5 354.5l1 0M154.5 354.5l1.5 -0.5M156 354l-1.5 0.5M156 354l1.5 0M158 353.5l-0.5 0.5M157.5 354l0.5 -0.5M158 353.5l1 -0.5M159.5 352.5l-0.5 0.5M159 353l0.5 -0.5M160 352l-0.5 0.5M159.5 352.5l0.5 -0.5M160.5 299.5l-0.5 0.5M160 300l0.5 -0.5M160.5 351.5l-0.5 0.5M160 352l0.5 -0.5M160.5 299.5l4.5 0M160.5 350.5l0 0.5M160.5 351l0.5 0M160.5 351.5l0 -0.5M161 351l0.5 1.5M161 351l1 -2M162 353l-0.5 -0.5M161.5 352.5l0.5 0.5M162 349l0.5 -0.5M162.5 348.5l-0.5 0.5M162 353l1 1M162.5 348.5l1 -0.5M163.5 354.5l-0.5 -0.5M163 354l0.5 0.5M164 347.5l-0.5 0.5M163.5 348l0.5 -0.5M163.5 354.5l5.5 1M164.5 346.5l-0.5 0.5M164 347.5l0 -0.5M164 347l0.5 -0.5M164.5 346.5l1.5 -1.5M165.5 300l-0.5 -0.5M165 299.5l0.5 0.5M165.5 300l3.5 1.5M166 345l0.2 -0.5M166.2 344.5l-0.2 0.5M166.2 344.5l0.3 -0.5M166.5 344l-0.3 0.5M166.5 344l0.5 -0.5M167 343.5l0.5 -0.5M167.5 343l-0.5 0.5M167.5 343l0.5 0M168.5 342.5l-0.5 0.5M168 343l0.5 -0.5M168.5 342.5l3.5 -3M169.5 302l-0.5 -0.5M169 301.5l0.5 0.5M169.5 356l-0.5 -0.5M169 355.5l0.5 0.5M169.5 302l2 0.5M170 356.5l-0.5 -0.5M169.5 356l0.5 0.5M170 356.5l1.5 2.5 2.5 1M172.5 303l-1 -0.5M171.5 302.5l1 0.5M172.5 339l-0.5 0.5M172 339.5l0.5 -0.5M172.5 303l6 0M172.5 339l2.5 -3M174.5 360.5l-0.5 -0.5M174 360l0.5 0.5M174.5 360.5l1 0M175.5 335.5l-0.5 0.5M175 336l0.5 -0.5M175.5 335.5l0.5 -0.5M176.5 361l-1 -0.5M175.5 360.5l1 0.5M176 335l0.5 -0.5M176.5 334.5l-0.5 0.5M176.5 334.5l0.5 0M176.5 361l0.5 0M177.5 334l-0.5 0.5M177 334.5l0.5 -0.5M177 361l1 -0.5M178 360.5l-1 0.5M177.5 334l0.5 0M178 334l0.5 -0.5M178.5 333.5l-0.5 0.5M178 360.5l3 0M179 303.5l-0.5 -0.5M178.5 303l0.5 0.5M178.5 333.5l1 0M179 303.5l3 1.5M179.5 333.5l1 -0.5M180.5 333l-1 0.5M180.5 333l2 -0.5M181 360.5l2.5 0M183.5 360.5l-2.5 0M182.5 305.5l-0.5 -0.5M182 305l0.5 0.5M183 306l-0.5 -0.5M182.5 305.5l0.5 0.5M182.5 314l0 5M182.5 314l0.3 -0.5M182.8 313.5l-0.3 0.5M183 319.5l-0.5 -0.5M182.5 319l0.5 0.5M183 332l-0.5 0.5M182.5 332.5l0.5 -0.5M182.8 313.5l0.2 -0.5M183 313l-0.2 0.5M183 306l0 1M183.5 307.5l-0.5 -0.5M183 307l0.5 0.5M183 312.5l0 0.5M183 312.5l0.4 -2.9M183.4 309.6l-0.4 2.9M183 319.5l0.5 2M183 332l0.5 -0.5M183.5 309l-0.1 0.6M183.4 309.6l0.1 -0.6M183.5 307.5l0 1.5M183.5 321.5l0.5 0.5M184 322l-0.5 -0.5M184 331l-0.5 0.5M183.5 331.5l0.5 -0.5M183.5 360.5l3.5 0.5M184 240.5l0 -1.5M184.5 238.5l-0.5 0.5M184 239l0.5 -0.5M184.5 242l-0.5 -1.5M184 240.5l0.5 1.5M184.5 322.5l-0.5 -0.5M184 322l0.5 0.5M184 331l0.5 -2.5M184.5 238.5l4.5 -5 2 -5 0 -2M184.5 242.5l0 -0.5M185 243l-0.5 -0.5M184.5 242.5l0.5 0.5M184.5 322.5l0 -2M185 319.5l-0.5 1M184.5 320.5l0.5 -1M184.5 322.5l0 0.5M184.5 323l1 0.5M184.5 326l0 -3M185 327.5l-0.5 -1.5M184.5 326l0.5 1.5M185 327.5l-0.5 1M184.5 328.5l0.5 -1M185 243.5l0 -0.5M185 243.5l0.5 0.5M185.5 244l-0.5 -0.5M185 319.5l1 -2M185.5 245.5l0 -1.5M186 247.5l-0.5 -2M185.5 245.5l0.5 2M185.5 251l0 -2M186 248l-0.5 1M185.5 249l0.5 -1M185.5 252l0 -1M185.5 251l0 1M186 253.5l-0.5 -1.5M185.5 323.5l0.5 0.5M186 324l-0.5 -0.5M186 248l0 -0.5M186.5 254.5l-0.5 -1M186 253.5l0.5 1M186 317.5l0.5 -0.5M186.5 317l-0.5 0.5M186 324l1 0.5M187 255l-0.5 -0.5M186.5 317l1.5 -0.5M187.5 255.5l-0.5 -0.5M187 255l0.5 0.5M187.5 325l-0.5 -0.5M187 324.5l0.5 0.5M188 361.5l-1 -0.5M187 361l1 0.5M188 221l-0.5 -2M187.5 256.5l0 -1M188 257l-0.5 -0.5M187.5 256.5l0.5 0.5M187.5 325l2 0.5M189.5 223l-1.5 -2M188 221l1.5 2M190.5 261l-0.5 -2 -2 -2M188 316.5l0.5 -0.5M188.5 316l-0.5 0.5M188 361.5l0.5 0M188.5 316l1 0M189 362l-0.5 -0.5M188.5 361.5l0.5 0.5M189 362l4 0M190.5 225l-1 -2M190 326l-0.5 -0.5M189.5 325.5l0.5 0.5M190 326l3.5 0M191 226.5l-0.5 -1.5M190.5 225l0.5 1.5M190.5 263l0 -2M190.5 261l0 2M191 264l-0.5 -1M190.5 263l0.5 1M192 267l-1 -3M192 267l0.5 1M192.5 268l-0.5 -1M192 348.5l0 -4M192.5 344l-0.5 0.5M192 344.5l0.5 -0.5M192.5 349.5l-0.5 -1M192 348.5l0.5 1M192 356l0.5 -0.5M192 357.5l0 -1.5M192.5 355.5l-0.5 0.5M192.5 358.5l-0.5 -1M192 357.5l0.5 1M199.5 269.5l-4.5 0 -2.5 -1.5M192.5 343l0.5 -0.5M192.5 344l0 -1M193 342.5l-0.5 0.5M192.5 351l0 -1.5M193 351.5l-0.5 -0.5M192.5 351l0.5 0.5M192.5 355.5l0 -2M193 353l-0.5 0.5M192.5 353.5l0.5 -0.5M192.5 360l0 -1.5M193 361l-0.5 -1M192.5 360l0.5 1M193 342.5l0.5 -1M193 353l0 -1.5M193 362l0 -1M193 366l0 -4M193 362l4 -2.5 6.5 -0.5 3.5 -3 1.5 0M193 367l0 -1M193 367l0 -1M193.5 369l-0.5 -2M193 367l-0.5 0.5 0.5 -0.5M194 326.5l-0.5 -0.5M193.5 326l0.5 0.5M194.5 340.5l-1 1M193.5 341.5l1 -1M194 369.5l-0.5 -0.5M193.5 369l0.5 0.5M194 326.5l1 0M194 373.5l0 -4M194.5 375l-0.5 -1.5M194 373.5l0 2M194.5 340l0.5 -0.5M194.5 340.5l0 -0.5M195 339.5l-0.5 0.5M195 326.5l0.5 0M195 329l0 -2.5M195 326.5l0.5 -1.5 1.5 -1M195.5 329.5l-0.5 -0.5M195 329l0.5 0.5M195.5 339l-0.5 0.5M195 339.5l0.5 -0.5M196 327l-0.5 -0.5M195.5 326.5l0.5 0.5M196 331.5l-0.5 -2M195.5 339l0.5 -2M196 327l1 0M196.5 332l-0.5 -0.5M196 331.5l0.5 0.5M196 337l0.5 -0.5M196.5 336.5l-0.5 0.5M196.5 336.5l0 -4.5M197.5 323.5l-0.5 0.5M197 324l0.5 -0.5M197.5 327.5l-0.5 -0.5M197 327l0.5 0.5M197.5 323.5l0 -0.5M197.5 327.5l2.5 0 2 -1M199.5 269.5l1 -0.5M200.5 269l-1 0.5M202 269.5l-1.5 -0.5M200.5 269l1.5 0.5M202.5 269.5l-0.5 0M202 326.5l0.5 -0.5M202.5 326l-0.5 0.5M203 270l-0.5 -0.5M202.5 269.5l0.5 0.5M202.5 326l2 -2M204 270.5l-1 -0.5M203 270l1 0.5M206 273.5l-2 -3M204 270.5l2 3M204.5 324l0.5 -1M205 323l-0.5 1M205 286.5l0 -6M205.2 279.8l-0.2 0.7M205 280.5l0.2 -0.7M205.5 287l-0.5 -0.5M205 286.5l0.5 0.5M205 323l3 -4.5M205.2 279.8l0.3 -0.8M205.5 279l-0.3 0.8M206 277.5l-0.5 1.5M205.5 279l0.5 -1.5M207 288.5l-1.5 -1.5M206 274.5l0 -1M206 276.5l0 -2M206 274.5l0 2M206 277.5l0 -1M207 288.5l4.5 4M211.5 292.5l-4.5 -4M208.5 318l-0.5 0.5M208 318.5l0.5 -0.5M208.5 317l0.5 -0.5M208.5 318l0 -1M209 316.5l-0.5 0.5M208.5 356l0.5 -0.5M209 355.5l-0.5 0.5M209 312.5l0.5 -0.5M209 316.5l0 -4M209.5 312l-0.5 0.5M209 355.5l0.5 0M209.5 312l0.5 -1M210.5 356l-1 -0.5M209.5 355.5l1 0.5M210.5 310.5l-0.5 0.5M210 311l0.5 -0.5M210.5 306.5l0.5 -0.5M210.5 310.5l0 -4M211 306l-0.5 0.5M210.5 356l3 1M211 306l0 -0.5M211.5 304.5l-0.5 1M211 305.5l0.5 -1M213 296.5l-0.5 -3 -1 -1M211.5 304.5l0 -4M212 300l-0.5 0.5M211.5 300.5l0.5 -0.5M212 300l0.5 -1 3.5 -1M213.5 297.5l-0.5 -1M213 296.5l0.5 1.5M214 357.5l-0.5 -0.5M213.5 357l0.5 0.5M214 357.5l1.5 0M215.5 357.5l0.5 -0.5M216 357l-0.5 0.5M219 297.5l-3 0.5M216 298l3 -0.5M216 357l2.5 -0.5M218.5 356.5l0.5 -0.5M219 356l-0.5 0.5M219 297.5l2.5 0M219 356l4.5 -0.5 5.5 -2M222 298l-0.5 -0.5M221.5 297.5l0.5 0.5M222 298l2.5 0.5M225 299l-0.5 -0.5M224.5 298.5l0.5 0.5M225 299l0.5 0M226.5 299.5l-1 -0.5M225.5 299l1 0.5M227.5 300l-1 -0.5M226.5 299.5l1 0.5M227.5 300l3.5 0M229.5 353l-0.5 0.5M229 353.5l0.5 -0.5M229.5 353l2.5 -1 5.5 0 4.5 2M231 300l1 -0.5M232 299.5l-1 0.5M232 299.5l2 -0.5M234.5 298.5l-0.5 0.5M234 299l0.5 -0.5M234.5 298.5l1 0M235.5 298.5l1 -0.5M236.5 298l-1 0.5M236.5 298l1.5 0M238 298l0.5 -0.5M238.5 297.5l-0.5 0.5M238.5 297.5l11.5 0M243 354.5l-1 -0.5M242 354l1 0.5M243 354.5l0.5 0.5M244.5 355.5l-1 -0.5M243.5 355l1 0.5M244.5 355.5l0.5 1M245.5 357l-0.5 -0.5M245 356.5l0.5 0.5M246 358l-0.5 -1M245.5 357l0.5 1M246.5 359l-0.5 -1M246 358l0.5 1M246.5 359l1 2M248 361.5l-0.5 -0.5M247.5 361l0.5 0.5M248 361.5l4 2M250 297.5l0.5 -0.5M250.5 297l-0.5 0.5M250.5 297l2.5 -1 2.5 -3M252.5 364l-0.5 -0.5M252 363.5l0.5 0.5M252.5 364l1.5 1.5M255 367l-1 -1.5M254 365.5l1 1.5M255 367l2 2M256.5 292l-1 1M255.5 293l1 -1M256.5 292l0.5 -0.5M257 291.5l0.5 -0.5M257.5 291l-0.5 0.5M257.5 369.5l-0.5 -0.5M257 369l0.5 0.5M257.5 291l3 -2.5 1 0M257.5 369.5l0.5 0M258.5 370l-0.5 -0.5M258 369.5l0.5 0.5M258.5 370l2 0M261.5 370l-1 0M260.5 370l1 0M261.5 288.5l0.5 -0.5M262 288l-0.5 0.5M261.5 370l2 0M262 288l4.5 -1 4.5 -4M264 369.5l-0.5 0.5M263.5 370l0.5 -0.5M264 369.5l0.5 0M265 369l-0.5 0.5M264.5 369.5l0.5 -0.5M265 369l0.5 -0.5 -0.5 0.5M271 283l0.5 -0.5M271.5 282.5l-0.5 0.5M272.5 282l-1 0.5M271.5 282.5l1 -0.5M272.5 282l1 -0.5M274 281l-0.5 0.5M273.5 281.5l0.5 -0.5M274.5 280.5l-0.5 0.5M274 281l0.5 -0.5M274.5 280.5l0.5 0M275.5 280l-0.5 0.5M275 280.5l0.5 -0.5M275.5 280l0.5 0M276 280l0.5 -0.5M276.5 279.5l-0.5 0.5M276.5 279.5l3 0M279.5 279.5l0.5 -0.5M280 279l-0.5 0.5M280 279l3 -1.5M283.5 277l-0.5 0.5M283 277.5l0.5 -0.5M283.5 277l1.5 -0.5M285 276.5l-1.5 0.5M285.5 276l-0.5 0.5M285 276.5l0.5 -0.5M285.5 276l0.5 0M286.5 275.5l-0.5 0.5M286 276l0.5 -0.5M286.5 275.5l4.5 -1.5 1 -1.5M292.5 271.5l-0.5 1M292 272.5l0.5 -1M292.5 271.5l1 -1M294 270l-0.5 0.5M293.5 270.5l0.5 -0.5M294 270l1.5 -1M295.5 269l0.5 -0.5M296 268.5l-0.5 0.5M296 268.5l1.5 -1.5M298 266.5l-0.5 0.5M297.5 267l0.5 -0.5M298 265.5l0.5 -0.5M298 266.5l0 -1M298.5 265l-0.5 0.5M298.5 261.5l0.5 -0.5M298.5 265l0 -3.5M299 261l-0.5 0.5M299 260.5l0.5 -0.5M299 261l0 -0.5M299.5 260l-0.5 0.5M299.5 260l1 -1M301 258.5l-0.5 0.5M300.5 259l0.5 -0.5M301 258.5l1.5 -0.5M303 257.5l-0.5 0.5M302.5 258l0.5 -0.5M303 257.5l0.5 0M304 257l-0.5 0.5M303.5 257.5l0.5 -0.5M304 257l1.5 0" fill="none" stroke="#ffb46b" stroke-width="1.3" stroke-linejoin="round"/></g>
<g class="k-main"><path d="M103.5 342.5l7.5 -4M111 338.5l-1.5 -1.5 1.5 -3M111 338.5l1 0M112 338.5l0.5 -0.5M112.5 338l-0.5 0.5M112.5 338l5 -0.5M117.5 337.5l1 -0.5M118.5 337l-1 0.5M118.5 337l5.5 0M124 337l0.5 -0.5M124.5 336.5l-0.5 0.5M126.5 336.5l-2 0M139.5 297.5l-14.5 -0.5M127 336l-0.5 0.5M127 336l-0.5 0.5M128.5 336l-1.5 0M128.5 355l-0.5 -0.5M128.5 355l-0.5 -0.5M128 354.5l0 -2 1 -1.5 0 -5M129.5 335.5l-1 0.5M129 337l-0.5 -1M128.5 355.5l0 -0.5M129 356l-0.5 -0.5M129 356l-0.5 -0.5M129.5 337.5l-0.5 -0.5M129.5 337.5l-0.5 -0.5M129 338.5l0.5 -0.5M130 342l-1 -1 0 -2.5M129 338.5l0.5 -0.5M129 346l0.5 -0.5M129 346l0.5 -0.5M131 357l-2 -1M130 336l-0.5 -0.5M129.5 335.5l0.5 0.5M129.5 338l0 -0.5M129.5 345.5l1 -3M134.5 336l-4.5 0M130.5 342.5l-0.5 -0.5M130.5 342.5l-0.5 -0.5M131.5 356.5l-0.5 0.5M131.5 356.5l-0.5 0.5M139 356l0.5 -2 -3.5 -0.5 -2.5 0.5 -1 2.5 -1 0M138.5 334.5l-4 1.5M134.5 336l4 -1.5M138 358.5l0 -0.5M138 358.5l0 -0.5M138 358l0.5 -1.5M142 359.5l-4 0 0 -1M138.5 334.5l2 -0.5M140.5 334l-2 0.5M138.5 356.5l0.5 -0.5M138.5 356.5l0.5 -0.5M140.5 298l-1 -0.5M140.5 298l-1 -0.5M145.5 300l-1.5 0 -3.5 -2M142.5 332.5l-2 1.5M142.5 360l-0.5 -0.5M142.5 360l-0.5 -0.5M143 331l-0.5 1.5M142.5 332.5l0.5 -1.5M146 361.5l-2 -1.5 -1.5 0M146.5 328.5l-2 0.5 -1.5 2M154.5 299.5l-9 0.5M154.5 299.5l-9 0.5M147 362l-1 -0.5M147 362l-1 -0.5M146.5 328.5l3 -1M149.5 327.5l-3 1M149 362.5l-2 -0.5M149 61.5l0.5 2.5 3 2 2.5 3.5 0 3 -3 2.5 -0.5 5.5 1.5 1.5 2.5 -0.5 1 1 -1 4.5 2.5 1.5 2 0 0 3 2 1.5 -0.5 3.5 1 1 5 1.5 0.5 4.5M150 363l-1 -0.5M150 363l-1 -0.5M152.5 328l-3 -0.5M156 362.5l-1.5 2 -2 0 -0.5 -1.5 -2 0M154 328.5l-1.5 -0.5M152.5 328l1.5 0.5M163 325.5l-1 0 -2 3 -6 0M159.5 300.5l-5 -1M156 362.5l0.5 -0.5M156.5 362l-0.5 0.5M157 361.5l-0.5 0.5M157 361.5l-0.5 0.5M157.5 141.5l-0.5 -0.5M157.5 141.5l-0.5 -0.5M157 141l0.5 -2M158 360l-1 1.5M157.5 139l0.5 -0.5M157.5 139l0.5 -0.5M158.5 143.5l-1 -2M158 138.5l0.5 -2.5 2.5 -1 0.5 -1.5M158.5 359.5l-0.5 0.5M158.5 359.5l-0.5 0.5M159 144l-0.5 -0.5M159 144l-0.5 -0.5M160 358.5l-1.5 1M159.5 145l-0.5 -1M159.5 145l-0.5 -1M160.5 146l-1 -1M163 303l-3.5 -2.5M163 303l-3.5 -2.5M160.5 358l-0.5 0.5M160.5 358l-0.5 0.5M161 147l-0.5 -1M161 147l-0.5 -1M163.5 357.5l-3 0.5M166 161.5l1 -1.5 0 -3.5 -2 -1.5 0 -5 -4 -3M161.5 133.5l0 -0.5M161.5 133.5l0 -0.5M161.5 133l0 -1 -2 -1 0 -3 1 -1.5 2 -1M162.5 125.5l0.5 -0.5M162.5 125.5l0.5 -0.5M163 125l1 -0.5 1.5 -3 -1 -2.5 2.5 -4 -0.5 -7 1.5 -4.5M166 306l-3 -3M163.5 325l-0.5 0.5M163 325.5l0.5 -0.5M166.5 324.5l-3 0.5M165 357l-1.5 0.5M165 357l-1.5 0.5M165.5 356.5l-0.5 0.5M165.5 162l0.5 -0.5M165.5 162l1 1.5 0.5 3.5 4 0.5 2.5 5M166 161.5l-0.5 0.5M167 356l-1.5 0.5M167 356l-1.5 0.5M166.5 306.5l-0.5 -0.5M166.5 306.5l-0.5 -0.5M178 311.5l-2.5 -1.5 -5 0.5 -4 -4M167.5 323.5l-1 1M166.5 324.5l1 -1M176.5 356l-2 1 -6 -1.5 -1.5 0.5M174.5 322.5l-7 1M168 103.5l0.5 0M174 174l-0.5 -1.5M174 174l-0.5 -1.5M174 174.5l0 -0.5M174.5 175l-0.5 -0.5M174.5 175l-0.5 -0.5M175 175l-0.5 0M174.5 322.5l1.3 -0.3M175.8 322.2l-1.3 0.3M175.5 175.5l-0.5 -0.5M175.5 175.5l-0.5 -0.5M190.5 196.5l-1.5 -2.5 0.5 -2.5 -3 -5 -3 -3 -0.5 -2 -1.5 -1 0.5 -3 -3 -2 -3.5 0M175.8 322.2l0.7 -0.2M176.5 322l-0.7 0.2M176.5 322l5.5 -1M182 321l-5.5 1M177 355.5l-0.5 0.5M176.5 356l0.5 -0.5M177 355.5l0.5 0M177.5 355.5l1 -0.5M178.5 355l-1 0.5M182.5 314.5l-4.5 -3M182.5 314.5l-4.5 -3M178.5 355l6 -1.5 1.5 0 1 1M182.5 321l-0.5 0M183.5 315l-1 -0.5M183 320.5l-0.5 0.5M182.5 321l0.5 -0.5M185 319.5l-2 1M184 315.5l-0.5 -0.5M184 315.5l-0.5 -0.5M192 318l-4 -0.5 -4 -2M186.5 319l-1.5 0.5M185 319.5l1.5 -0.5M186.5 215l0.5 -0.5M186.5 218l0 -3M187 214.5l-0.5 0.5M187 218.5l-0.5 -0.5M186.5 218l0.5 0.5M187.5 318.5l-1 0.5M187 212.5l0.5 -0.5M187 214.5l0 -2M187.5 212l-0.5 0.5M191 224l-1 -2 -2.5 -0.5 -0.5 -3M188 354.5l-1 0M187 354.5l1 1.5M187.5 212l0.5 -1.5M187.5 318.5l0.5 -0.5M188 318l-0.5 0.5M188 210.5l0.5 -0.5M188.5 210l-0.5 0.5M192 318l-4 0M188 354.5l0 0.5M188.5 354l-0.5 0.5M188 355l0 1M188.5 354l-0.5 1M188 356l0 1M188 357l0 1.5 1 1M190.5 362.5l-3 -3.5 0.5 -2M188.5 210l2.5 -3.5 0 -2 -1 -1 1 -6.5M188.5 351.5l0.5 -0.5M188.5 351.5l0 2.5M189 351l-0.5 0.5M198 340.5l-0.5 2 -2.5 3 -2.5 2.5 -2.5 0.5 -1 2.5M189.5 360l-0.5 -0.5M189 359.5l0.5 0.5M189.5 360l1 2.5M191 197l-0.5 -0.5M191 197l-0.5 -0.5M191 247l-0.5 -0.5M190.5 246.5l0.5 0.5M190.5 246.5l0.5 -5 -1 -0.5 0 -1.5 2 -1M190.5 362.5l0.5 1M191 363.5l-0.5 -1M191 376l-0.5 -4M190.5 372l0.3 -2.5M190.5 372l0.3 -2.5M190.8 369.5l0.2 -1.5M190.8 369.5l0.2 -1.5M191.5 224.5l-0.5 -0.5M191 224l0.5 0.5M191 253l0 -6M191.5 254.5l-0.5 -1.5M191 253l0.5 1.5M191 363.5l0.5 2.5M191 366.5l0 -3M191 366.5l0.5 -0.5M191 368l0 -1.5M191.5 366l-0.5 0.5M191.5 226l0 -1.5M192 226.5l-0.5 -0.5M191.5 226l0.5 0.5M193.5 258l-2 -3.5M192.5 227l-0.5 -0.5M192.5 238l-0.5 0.5M192 238.5l0.5 -0.5M193 318l-1 0M193 227.5l-0.5 -0.5M192.5 227l0.5 0.5M192.5 238l0.5 -4.5M193.5 227.5l-0.5 0M193 233.5l0.5 -0.5M193.5 233l-0.5 0.5M194.5 318.5l-1.5 -0.5M194.5 318.5l-1.5 -0.5M194.5 318.5l-1.5 -0.5M194 228l-0.5 -0.5M193.5 227.5l0.5 0.5M193.5 233l0.5 -3.5M194 258.5l-0.5 -0.5M193.5 258l0.5 0.5M194.5 229l-0.5 -1M194.5 229l-0.5 0.5M194 229.5l0.5 -0.5M199.5 312.5l0 -1.5 -2 -1.5 -0.5 -4 1.5 -2.5 -0.5 -12.5 1.5 -6 -1 -4.5 1 -8.5 -3.5 -3.5 0 -2.5 -1.5 -2 -0.5 -5M196 318.5l-1.5 0M197 318.5l-1 0M196 318.5l1 1M196 327.5l0.5 -0.5M196 327.5l0 0.5M196.5 327l-0.5 0.5M196.5 328.5l-0.5 -0.5M196 328l0.5 0.5M197 326l-0.5 0M196.5 326l0 0.5M197 325.5l-0.5 0.5M196.5 326.5l0 0.5M196.5 326.5l0.5 -0.5M196.5 328.5l0 0.5M197 329.5l-0.5 -0.5M196.5 329l0.5 0.5M197 318.5l0.5 -0.5M197 319l0 -0.5M197 318.5l0.5 -0.5M197 318.5l0.5 -0.5M197.5 320l-0.5 -1M197 319l0 0.5M197.5 320l-0.5 -0.5M197 319.5l0.5 0.5M197 325l0.5 0M197 325l0 0.5M197.5 324.2l-0.5 0.8M197.5 324.5l-0.5 0.5M197 325.5l0 0.5M197 325.5l0.5 -0.5M197.5 330l-0.5 -0.5M197 329.5l0.5 0.5M197.5 317l0.5 0M197.5 317.5l0 -0.5M197.5 317l0.5 -0.5M197.5 317.5l0.5 -0.5M197.5 318l0 -0.5M197.5 317.5l0.5 -0.5M198 321l-0.5 -1M197.5 320l0 0.5M197.5 320.5l0.5 0.5M197.5 320.5l0.5 1M197.5 324l0.2 0M197.5 324.2l0 -0.2M198 323.5l-0.5 0.5M197.5 324.5l0 -0.3M197.7 324l-0.2 0.2M197.5 325l0 -0.5M197.5 330l3 0.5 0.5 1.5M197.7 324l0.3 -0.5M198 323.5l-0.3 0.5M198 316l0.5 0M198 316.5l0 -0.5M198 316l0.5 -0.5M198 316l0.5 -0.5M198 317l0 -0.5M198 316.5l0.5 -0.5M198 321l0 0.5M198 321.5l0 2M198.5 340l-0.5 0.5M198 340.5l0.5 -0.5M199 313.5l-0.5 0.5M198.5 315.5l0 -1.5M198.5 314l0.5 -0.5M198.5 316l0 -0.5M198.5 339.5l0.5 -0.5M198.5 339.5l0 0.5M199 339l-0.5 0.5M199 313.5l0.5 -1M199 313.5l0.5 -1M199.5 338l-0.5 1M199.5 312.5l3 -0.5M199.5 338l0.5 -0.5M200 337.5l-0.5 0.5M200.5 336.5l-0.5 1M200.5 336.5l-0.5 1M200.6 336l-0.1 0.5M200.6 336l-0.1 0.5M201.5 335.5l-0.9 0.5M201 334.5l-0.4 1.5M201.5 332.5l-0.5 -0.5M201.5 332.5l-0.5 -0.5M201 332l0 1M201 333l0.5 -0.5M201 333l0 1.5M201.5 335.5l-0.5 -1M202.5 335.5l-1 0M203 311.5l-0.5 0.5M202.5 312l0.5 -0.5M203 335l-0.5 0.5M203 335l-0.5 0.5M203 311.5l2.5 -1M233 318.5l-0.5 2 -6 4.5 -5 6 -8 1.5 -3.5 1.5 -7 1M206 310l-0.5 0.5M205.5 310.5l0.5 -0.5M206 310l3.5 -0.5 2.5 2.5M212 312l0.8 0.7M212.8 312.7l-0.8 -0.7M214.5 314l-1.7 -1.3M212.8 312.7l1.7 1.3M214.5 314l2 1M217 315.5l-0.5 -0.5M216.5 315l0.5 0.5M217 315.5l0.5 0M217.5 316l-0.5 -0.5M217.5 315.5l1.5 1M217.5 315.5l0 0.5M219 316.5l-1.5 -0.5M219 316.5l0.5 0M220 317l-0.5 -0.5M219.5 316.5l0.5 0.5M220 317l4 0.5 0.5 2 3 1 0.5 1 2 0 0.5 -1.5 2.5 -1.5M233 318.5l0.5 -9 3 -3.5 -0.5 -4 2 -4.5 1.5 -1.5M243 294l-3.5 2M239.5 296l3.5 -2M243 294l1 -0.5 0.5 -2.5M245 290l-0.5 1M244.5 291l0.5 -1M245 290l1 -5 2.5 -2.5 4.5 -3.5 1.5 0 1.5 -1.5 4.5 -0.5 5 -3M263.5 328l0.5 -0.5M263.5 328l0.5 3 2.5 1.5M264 327.5l-0.5 0.5M264 327.5l0.5 -0.5M264.5 327l-0.5 0.5M268.5 326l-0.5 1 -3.5 0M265 377.5l0.5 1 -0.5 -1M265.5 357.5l-1 3.5 0.5 16.5M265.5 274l1.5 -1M267 273l-1.5 1M267 322.5l-0.5 -0.5M266.5 322l0.5 0.5M277 310.5l-4.5 6 -3.5 0.5 -1 1 -1.5 2 0 2M267 333l-0.5 -0.5M266.5 332.5l0.5 0.5M268 337.5l-1.5 4.5M267 273l0.5 0M267 322.5l2 3M267 333l1.5 1 0.5 1.5M268 272.5l-0.5 0.5M267.5 273l0.5 -0.5M268 272.5l5 -0.5 2.5 -2.5 5.5 0 5.5 -2.5 1.5 0 1 1.5 3 1M268 337.5l0.5 -0.5M268.5 337l-0.5 0.5M268.5 326l0.5 -0.5M269 325.5l-0.5 0.5M268.5 336l0 1M269 335.5l-0.5 0.5M268.5 336l0.5 -0.5M277 310.5l0.5 -0.3M277.5 310.2l-0.5 0.3M277.5 310.2l0.5 -0.2M278 310l-0.5 0.2M279.5 307.5l-1.5 2.5M279.5 307.5l0.5 -0.5M280 307l-0.5 0.5M280 306l0 1M280.5 305.5l-0.5 0.5M280 306l0.5 -0.5M280.5 304l0.5 -0.5M280.5 304l0 1.5M281 303.5l-0.5 0.5M283.5 297l-2.5 6.5M283 286l0.5 -0.5M283 286l-1 1 0 1.5 3 1.5 0 3.5 -1 2.5M283.5 285.5l-0.5 0.5M285.5 284l-2 1.5M283.5 297l0.5 -1M284 296l-0.5 1M286 283.5l-0.5 0.5M285.5 284.5l0 -0.5M285.5 284l0.5 -0.5M287 282l-1 1.5M287 282l0.5 -0.5M287.5 281.5l-0.5 0.5M288.5 280l-1 1.5M288.5 280l0.5 0M289 279.5l-0.5 0.5M295.5 274.5l-4 3M292.5 270l-0.5 -0.5M292 269.5l0.5 0.5M292.5 270l3 1 2.5 -0.5M295.5 274.5l0.5 -0.5M296 274l-0.5 0.5M297.5 273l-1.5 1M298 272.5l-0.5 0.5M297.5 273l0.5 -0.5M298 270.5l0.8 -1M298.8 269.5l-0.8 1M300 269.5l-2 3M298.8 269.5l0.2 -0.5M299 269l-0.2 0.5M300 268l-1 1M299 269l1 -1M300 268l0.5 -0.5M300 269.5l0.5 -0.5M300.5 269l-0.5 0.5M301 267l-0.5 0.5M300.5 267.5l0.5 -0.5M305 268l-3.5 0 -1 1M301 267l1.5 -0.5M302.5 266.5l1 0M303.5 266.5l-1 0M303.5 266.5l1 0" fill="none" stroke="#8fe3c9" stroke-width=".9" stroke-dasharray="3 2"/></g>
<g class="k-hsr"><path d="" fill="none" stroke="#8fe3c9" stroke-width="1.8" stroke-dasharray="6 2.5"/></g>
</g>
<g class="L3">
<path class="pref-line" d="M242.4 207.2l-4 0.5M238.4 207.7l-2.1 0.9M236.3 208.6l-1.6 1.7M234.7 210.3l-1.7 3.7M233 214l-0.5 2M232.5 216l0.6 1.9M233.1 217.9l0.9 0.7M234 218.6l1.5 1M235.5 219.6l0 1.9M235.5 221.5l-0.3 1.5M235.2 223l-5.5 9.6M229.7 232.6l-9.1 -4.2M220.6 228.4l-5.8 -5.5M214.8 222.9l-2.6 -3M212.2 219.9l-7.8 -2M204.4 217.9l-2.9 0.1M201.5 218l-9.5 2.7M192 220.7l-2.6 -0.7M189.4 220l-2.6 -1.2M186.8 218.8l-4.1 -2.8M182.7 216l-3.3 -0.7M179.4 215.3l-2.7 0.1M176.7 215.4l-4.8 2.2M171.9 217.6l-2.6 3.2M169.3 220.8l-0.6 1.9M168.7 222.7l-0.8 2.9M167.9 225.6l-2.9 4M165 229.6l-1.4 3.1M163.6 232.7l-3.6 3.9M160 236.6l-0.5 2.6M159.5 239.2l-0.2 6.2M159.3 245.4l-1 4.8M158.3 250.2l-0.4 4.8M157.9 255l0.1 4.7M158 259.7l-9.9 3.2M148.1 262.9l-7.1 3.5M141 266.4l-4.3 1.2M136.7 267.6l-12.3 0.4M124.4 268l-4.4 1.5M230.7 362.9l-0.8 -5.2M229.9 357.7l-3.5 -14.9M226.4 342.8l-0.3 -6M226.1 336.8l2 -3.7M228.1 333.1l9.2 -8.9M237.3 324.2l2.1 -1.2M239.4 323l5.2 -1.1M244.6 321.9l0.7 -2.7M245.3 319.2l-0.5 -2.1M244.8 317.1l-1.5 -1.7M243.3 315.4l-1.5 -1.4M241.8 314l-1.1 -1.6M240.7 312.4l0.6 -1.6M241.3 310.8l1.1 -1.4M242.4 309.4l6 -5M248.4 304.4l-4.9 -9.1M243.5 295.3l-2.7 -11.6M240.8 283.7l-2 -2.6M238.8 281.1l-3.9 -2.7M234.9 278.4l-3.9 -1.1M231 277.3l-21.7 -0.5M209.3 276.8l12.9 -20.6M222.2 256.2l2.4 -2.2M224.6 254l3.6 -2.3M228.2 251.7l2 0.3M230.2 252l4.2 -0.1M234.4 251.9l3.3 -10.3M237.7 241.6l-0.6 -1.3M237.1 240.3l-1.6 -1.8M235.5 238.5l-1.3 -0.9M234.2 237.6l-4.5 -5" fill="none" stroke="rgba(255,255,255,.28)" stroke-width=".7"/>
<g class="k-region"><path d="" fill="none" stroke="rgba(255,255,255,.62)" stroke-width="1.5" stroke-linejoin="round"/></g>
</g>
<g class="L2 lbl"><g class="k-lake"><text x="132.2" y="193.8" font-size="10" fill="#9be3ff" text-anchor="middle">Lac de la Haute-Sûre</text><text x="277" y="241.8" font-size="10" fill="#9be3ff" text-anchor="middle">Lac d'Echternach</text><text x="262" y="378" font-size="10" fill="#9be3ff" text-anchor="middle">Riemescher Weieren</text><text x="178.9" y="92.6" font-size="10" fill="#9be3ff" text-anchor="middle">Lac de Weiswampach</text></g><g class="k-river"><text x="183.8" y="178" font-size="10" fill="#9be3ff" text-anchor="middle">Sûre</text><text x="197.6" y="268.9" font-size="10" fill="#9be3ff" text-anchor="middle">Alzette</text><text x="199.3" y="137.7" font-size="10" fill="#9be3ff" text-anchor="middle">Our</text><text x="276.3" y="306.7" font-size="10" fill="#9be3ff" text-anchor="middle">Mosel</text><text x="295.9" y="216" font-size="10" fill="#9be3ff" text-anchor="middle">Sauer - Sûre</text><text x="153" y="284.2" font-size="10" fill="#9be3ff" text-anchor="middle">L'Eisch</text><text x="142.5" y="148.7" font-size="10" fill="#9be3ff" text-anchor="middle">Wiltz</text><text x="146.8" y="235.5" font-size="10" fill="#9be3ff" text-anchor="middle">L'Attert</text><text x="157.4" y="134.9" font-size="10" fill="#9be3ff" text-anchor="middle">Clerve</text><text x="91.5" y="215.4" font-size="10" fill="#9be3ff" text-anchor="middle">La Sûre</text><text x="181" y="297.8" font-size="10" fill="#9be3ff" text-anchor="middle">Mamer</text><text x="284.1" y="195" font-size="10" fill="#9be3ff" text-anchor="middle">Prüm</text><text x="273.4" y="267.2" font-size="10" fill="#9be3ff" text-anchor="middle">Syre</text></g><g class="k-motorway"><text x="259.6" y="285.3" font-size="9" fill="#ffc98f" text-anchor="middle">Autoroute de Trèves</text><text x="231.1" y="348.6" font-size="9" fill="#ffc98f" text-anchor="middle">Liaison avec la Sarre</text><text x="172.2" y="314.7" font-size="9" fill="#ffc98f" text-anchor="middle">Autoroute d'Arlon</text><text x="187.7" y="214.9" font-size="9" fill="#ffc98f" text-anchor="middle">Autoroute du Nord</text><text x="173.3" y="334.3" font-size="9" fill="#ffc98f" text-anchor="middle">Autoroute d'Esch</text></g><g class="k-main"><text x="273.6" y="327.3" font-size="9" fill="#b6f0dd" text-anchor="middle">Obermoselstrecke</text></g></g>
<g class="L3 lbl"><g class="k-prefname"><text x="152.5" y="173.9" font-size="9" fill="rgba(255,255,255,.8)" text-anchor="middle">ディーキルヒ広域行政区</text><text x="266.2" y="258.8" font-size="9" fill="rgba(255,255,255,.8)" text-anchor="middle">グレーヴェンマハ広域行政区</text><text x="175.5" y="329" font-size="9" fill="rgba(255,255,255,.8)" text-anchor="middle">ルクセンブルグ</text></g><g class="k-city"><circle cx="196.6" cy="311.3" r="2.3" fill="#fff"/><text x="202.6" y="314.8" font-size="10" fill="#fff" text-anchor="start" font-weight="600">ルクセンブルク市</text><circle cx="207" cy="191.7" r="2.3" fill="#fff"/><text x="213" y="195.2" font-size="10" fill="#fff" text-anchor="start" font-weight="600">ディーキルヒ</text><circle cx="254.4" cy="272.4" r="2.3" fill="#fff"/><text x="248.4" y="275.9" font-size="10" fill="#fff" text-anchor="end" font-weight="600">グレーヴェンマハ</text></g></g>
</g>
<rect x="46" y="26" width="289.9" height="396" fill="none" stroke="rgba(255,255,255,.3)" stroke-width="1"/>
<text x="46" y="17" font-size="12" fill="#fff" font-weight="600" stroke="none">ルクセンブルク全土</text>
<text x="335.9" y="17" font-size="11" fill="#ffd166" font-weight="600" text-anchor="end" stroke="none">この図だけ 10倍（1度＝440px）</text>
<path d="M244.7 406V410H323.9V406" fill="none" stroke="rgba(255,255,255,.7)" stroke-width="1.2"/>
<text x="284.3" y="403" font-size="9.5" fill="rgba(255,255,255,.75)" text-anchor="middle">20 km</text>
</svg>