<svg xmlns="http://www.w3.org/2000/svg" viewBox="0 0 689.6 432.8" width="689.6" height="432.8" class="cc-map" role="img" aria-label="拡大図：リヒテンシュタイン（20倍）・モナコ（100倍）">
<style>.cc-map text{font-family:"Hiragino Sans","Noto Sans JP",system-ui,sans-serif;paint-order:stroke;stroke:#000;stroke-width:2.6px;stroke-linejoin:round}</style>
<g class="L2">
<clipPath id="cc-r31-zlie"><rect x="46" y="46" width="213.6" height="299.2"/></clipPath>
<rect x="46" y="46" width="213.6" height="299.2" fill="#05080d"/>
<g class="grid">
<path d="M69.1 46V345.2M126.8 46V345.2M184.6 46V345.2M242.3 46V345.2M46 336.4H259.6M46 248.4H259.6M46 160.4H259.6M46 72.4H259.6" stroke="rgba(255,255,255,.07)" stroke-width=".6" stroke-dasharray="2 3" fill="none"/>
<path d="M46 336.4H259.6" stroke="rgba(255,255,255,.06)" stroke-width=".5" fill="none"/>
<path d="" stroke="rgba(255,255,255,.16)" stroke-width=".8" fill="none"/>
<text x="69.1" y="360.2" font-size="9.5" fill="rgba(255,255,255,.55)" text-anchor="middle" stroke="none">東経9.4°</text>
<text x="126.8" y="360.2" font-size="9.5" fill="rgba(255,255,255,.55)" text-anchor="middle" stroke="none">東経9.5°</text>
<text x="184.6" y="360.2" font-size="9.5" fill="rgba(255,255,255,.55)" text-anchor="middle" stroke="none">東経9.6°</text>
<text x="41" y="339.9" font-size="9.5" fill="rgba(255,255,255,.55)" text-anchor="end" stroke="none">北緯47.0°</text>
<text x="41" y="251.9" font-size="9.5" fill="rgba(255,255,255,.55)" text-anchor="end" stroke="none">北緯47.1°</text>
<text x="41" y="163.9" font-size="9.5" fill="rgba(255,255,255,.55)" text-anchor="end" stroke="none">北緯47.2°</text>
<text x="41" y="75.9" font-size="9.5" fill="rgba(255,255,255,.55)" text-anchor="end" stroke="none">北緯47.3°</text>
</g>
<g clip-path="url(#cc-r31-zlie)">
<path d="M224.4 286.9l-9.6 -1.5 -30.3 3.9 -10.8 -2.9 15.9 -21.1 4 -22.9 -5.8 -22.4 -13.7 -19.9 -17.2 -10.6 -0.1 -7.6 5.7 -13.2 0.6 -6.3 -4.9 -12.2 -5.5 -7.7 -2.6 -7.7 3.9 -12.3 -9.7 -9.3 -5.3 -8.1 18.6 -32.6 19.7 -24.6 0.7 -1.9 81.6 0 0 252.5zM177.3 47.9l-19.7 24.6 -28.1 49.4 -10 29.7 -1.3 29.6 4.4 14.6 6.2 12.7 4.9 14.1 0.3 18.7 -5.5 11.8 -8.9 9.4 -6.7 9.5 0.7 8.2 13 4 35.2 6.1 11.9 -3.9 10.8 2.9 30.3 -3.9 9.6 1.5 35.2 11.6 0 46.7 -213.6 0 0 -299.2 132 0z" fill="rgba(255,255,255,.05)" stroke="rgba(255,255,255,.18)" stroke-width=".7" stroke-linejoin="round"/>
<path d="M144.3 113.2l9.7 9.3 -3.9 12.3 2.6 7.7 5.5 7.7 4.9 12.2 -0.6 6.3 -5.7 13.2 0.1 7.6 17.2 10.6 13.7 19.9 5.8 22.4 -4 22.9 -15.9 21.1 -11.9 3.9 -35.2 -6.1 -13 -4 -0.7 -8.2 6.7 -9.5 8.9 -9.4 5.5 -11.8 -0.3 -18.7 -4.9 -14.1 -6.2 -12.7 -4.4 -14.6 1.3 -29.6 10 -29.7 9.5 -16.8z" fill="rgba(61,139,255,.16)" stroke="#6aa9ff" stroke-width=".8" stroke-linejoin="round"/>
<text x="86.4" y="292.4" font-size="10.5" fill="rgba(255,255,255,.6)" text-anchor="middle">スイス</text>
<text x="219.2" y="81.2" font-size="10.5" fill="rgba(255,255,255,.6)" text-anchor="middle">オーストリア</text>
<text x="161.2" y="258.4" font-size="12" fill="#fff" text-anchor="middle" font-weight="600">リヒテンシ​ュタイン</text>
</g>
<rect x="46" y="46" width="213.6" height="299.2" fill="none" stroke="#ffd166" stroke-width="1.2" stroke-dasharray="5 3"/>
<text x="46" y="24" font-size="12" fill="#fff" text-anchor="start" font-weight="600" stroke="none">リヒテンシュタイン</text>
<text x="46" y="38" font-size="10.5" fill="#ffd166" text-anchor="start" font-weight="600" stroke="none">この図だけ 20倍（1度＝880px）</text>
<path d="M208 329.2V333.2H247.6V329.2" fill="none" stroke="rgba(255,255,255,.7)" stroke-width="1.2"/>
<text x="227.8" y="326.2" font-size="9.5" fill="rgba(255,255,255,.75)" text-anchor="middle">5 km</text>
<clipPath id="cc-r31-zmco"><rect x="343.6" y="46" width="332" height="360.8"/></clipPath>
<rect x="343.6" y="46" width="332" height="360.8" fill="#05080d"/>
<g class="grid">
<path d="M386.9 46V406.8M444.6 46V406.8M502.4 46V406.8M560.1 46V406.8M617.8 46V406.8M675.6 46V406.8M343.6 406.8H675.6M343.6 318.8H675.6M343.6 230.8H675.6M343.6 142.8H675.6M343.6 54.8H675.6" stroke="rgba(255,255,255,.07)" stroke-width=".6" stroke-dasharray="2 3" fill="none"/>
<path d="" stroke="rgba(255,255,255,.06)" stroke-width=".5" fill="none"/>
<path d="" stroke="rgba(255,255,255,.16)" stroke-width=".8" fill="none"/>
<text x="386.9" y="421.8" font-size="9.5" fill="rgba(255,255,255,.55)" text-anchor="middle" stroke="none">東経7.36°</text>
<text x="444.6" y="421.8" font-size="9.5" fill="rgba(255,255,255,.55)" text-anchor="middle" stroke="none">東経7.38°</text>
<text x="502.4" y="421.8" font-size="9.5" fill="rgba(255,255,255,.55)" text-anchor="middle" stroke="none">東経7.40°</text>
<text x="560.1" y="421.8" font-size="9.5" fill="rgba(255,255,255,.55)" text-anchor="middle" stroke="none">東経7.42°</text>
<text x="617.8" y="421.8" font-size="9.5" fill="rgba(255,255,255,.55)" text-anchor="middle" stroke="none">東経7.44°</text>
<text x="338.6" y="410.3" font-size="9.5" fill="rgba(255,255,255,.55)" text-anchor="end" stroke="none">北緯43.70°</text>
<text x="338.6" y="322.3" font-size="9.5" fill="rgba(255,255,255,.55)" text-anchor="end" stroke="none">北緯43.72°</text>
<text x="338.6" y="234.3" font-size="9.5" fill="rgba(255,255,255,.55)" text-anchor="end" stroke="none">北緯43.74°</text>
<text x="338.6" y="146.3" font-size="9.5" fill="rgba(255,255,255,.55)" text-anchor="end" stroke="none">北緯43.76°</text>
<text x="338.6" y="58.3" font-size="9.5" fill="rgba(255,255,255,.55)" text-anchor="end" stroke="none">北緯43.78°</text>
</g>
<g clip-path="url(#cc-r31-zmco)">
<path d="M659.3 155.5l-24.2 32 -24.6 28.5 -32.4 -53.2 -55.6 -35.4 -56.1 24.6 -43 53.1 -15.5 51.5 -4.4 50.2 -36.3 31 -23.6 26 0 -317.8 332 0 0 94.5z" fill="rgba(255,255,255,.05)" stroke="rgba(255,255,255,.18)" stroke-width=".7" stroke-linejoin="round"/>
<path d="M597.2 231.4l-43 39.4 -39.4 56.9 -68.1 -5.7 -43.2 -15.2 4.4 -50.2 15.5 -51.5 43 -53.1 56.1 -24.6 55.6 35.4 32.4 53.2z" fill="rgba(61,139,255,.16)" stroke="#6aa9ff" stroke-width=".8" stroke-linejoin="round"/>
<text x="473.5" y="90" font-size="10.5" fill="rgba(255,255,255,.6)" text-anchor="middle">フランス</text>
<text x="512.1" y="216.2" font-size="12" fill="#fff" text-anchor="middle" font-weight="600">モナコ</text>
</g>
<rect x="343.6" y="46" width="332" height="360.8" fill="none" stroke="#ffd166" stroke-width="1.2" stroke-dasharray="5 3"/>
<text x="343.6" y="24" font-size="12" fill="#fff" text-anchor="start" font-weight="600" stroke="none">モナコ</text>
<text x="343.6" y="38" font-size="10.5" fill="#ffd166" text-anchor="start" font-weight="600" stroke="none">この図だけ 100倍（1度＝4,400px）</text>
<path d="M624 390.8V394.8H663.6V390.8" fill="none" stroke="rgba(255,255,255,.7)" stroke-width="1.2"/>
<text x="643.8" y="387.8" font-size="9.5" fill="rgba(255,255,255,.75)" text-anchor="middle">1 km</text>
</g></svg>